<svg xmlns="http://www.w3.org/2000/svg" width="386.22" height="102.89" viewBox="0 0 386.22 102.89"><defs><style>.cls-1{fill:#23356b;}</style></defs><title>logo_signate_db</title><g id="レイヤー_2" data-name="レイヤー 2"><g id="section02"><path class="cls-1" d="M32.37,55.13A10.38,10.38,0,0,0,27.67,51a15,15,0,0,0-6.12-1.3,18.39,18.39,0,0,0-4.61.59A13.71,13.71,0,0,0,12.87,52a8.78,8.78,0,0,0-4,7.63,9.44,9.44,0,0,0,.63,3.57A7.56,7.56,0,0,0,11.57,66a15.36,15.36,0,0,0,3.86,2.35,55.85,55.85,0,0,0,5.95,2.18c2.3.72,4.52,1.51,6.67,2.34a22.57,22.57,0,0,1,5.7,3.19,14.28,14.28,0,0,1,4,4.82,16.1,16.1,0,0,1,1.46,7.26,15.64,15.64,0,0,1-6.41,13.12,20.12,20.12,0,0,1-6.67,3.19,28.9,28.9,0,0,1-7.8,1,30.45,30.45,0,0,1-5.2-.46,25.51,25.51,0,0,1-5-1.43,20.15,20.15,0,0,1-4.48-2.51A15.3,15.3,0,0,1,0,97.31l6-5a12.36,12.36,0,0,0,5.37,5A16.38,16.38,0,0,0,18.7,99a16.58,16.58,0,0,0,4.57-.67,14.07,14.07,0,0,0,4.15-2,10.82,10.82,0,0,0,3-3.23,8.43,8.43,0,0,0,1.18-4.45,9.45,9.45,0,0,0-.93-4.49,8.2,8.2,0,0,0-2.85-3A21.67,21.67,0,0,0,23,78.94L16.1,76.59a43.24,43.24,0,0,1-5.87-2.3A18,18,0,0,1,5.58,71.1a13.65,13.65,0,0,1-3.11-4.53,16.1,16.1,0,0,1-1.13-6.33A15.31,15.31,0,0,1,7.55,47.45,20.73,20.73,0,0,1,14,44.22a26.09,26.09,0,0,1,7.54-1.09,26.18,26.18,0,0,1,9.19,1.55,18.09,18.09,0,0,1,7.42,5.41Z" transform="translate(0 -2.64)"/><path class="cls-1" d="M61.43,44.64h7V104h-7Z" transform="translate(0 -2.64)"/><path class="cls-1" d="M142.34,100a42,42,0,0,1-10.78,4.2,49.7,49.7,0,0,1-11.45,1.34,34.62,34.62,0,0,1-12.74-2.27,29.74,29.74,0,0,1-10-6.37A28.62,28.62,0,0,1,90.76,87a33.41,33.41,0,0,1-2.35-12.71,32,32,0,0,1,2.48-12.79,28.9,28.9,0,0,1,6.83-9.81,31.64,31.64,0,0,1,10.15-6.33,34,34,0,0,1,12.5-2.27,36.36,36.36,0,0,1,11.28,1.76,24.26,24.26,0,0,1,9.68,6l-5.28,5.54a20.16,20.16,0,0,0-7.34-5,23.14,23.14,0,0,0-8.85-1.77,24,24,0,0,0-9.47,1.85A23,23,0,0,0,97.77,64.43a27.73,27.73,0,0,0,0,19.71,23.35,23.35,0,0,0,5,7.84,22.5,22.5,0,0,0,7.75,5.16,26.23,26.23,0,0,0,10,1.85,35.05,35.05,0,0,0,7.55-.88,30.12,30.12,0,0,0,7.21-2.56V77.35h7.05Z" transform="translate(0 -2.64)"/><path class="cls-1" d="M163.34,44.64h8.89L206.61,94h.17V44.64h7.05V104h-8.89L170.55,54.71h-.16V104h-7Z" transform="translate(0 -2.64)"/><path class="cls-1" d="M257.64,53.7h-.17L236.25,104h-8l26.16-59.38h6.63L286.32,104H278.1Z" transform="translate(0 -2.64)"/><path class="cls-1" d="M334.88,51.18H315.26V104h-7.05V51.18H288.59V44.64h46.29Z" transform="translate(0 -2.64)"/><path class="cls-1" d="M347.27,44.64h37.32v6.54H354.31V69.8h28.27v6.54H354.31V97.48H386.1V104H347.27Z" transform="translate(0 -2.64)"/><path class="cls-1" d="M13.67,4.69a8.1,8.1,0,0,1,3.11,3A8.36,8.36,0,0,1,17.9,12a8.28,8.28,0,0,1-1.14,4.3,8.09,8.09,0,0,1-3.13,3A9.09,9.09,0,0,1,9.17,20.4H2.4V3.6H9.24A9,9,0,0,1,13.67,4.69ZM12.47,17.5a6,6,0,0,0,2.25-2.26A6.26,6.26,0,0,0,15.55,12a6.31,6.31,0,0,0-.84-3.24,6.06,6.06,0,0,0-2.29-2.26,6.32,6.32,0,0,0-3.23-.83H4.7V18.31H9.29A6.32,6.32,0,0,0,12.47,17.5Z" transform="translate(0 -2.64)"/><path class="cls-1" d="M29.21,20.4V18.62a5.22,5.22,0,0,1-4.44,1.88A5,5,0,0,1,22.45,20a3.69,3.69,0,0,1-1.53-1.39,3.76,3.76,0,0,1-.54-2,3.25,3.25,0,0,1,1.26-2.7,5.55,5.55,0,0,1,3.51-1h4v-.6a2.63,2.63,0,0,0-.82-2.08,3.55,3.55,0,0,0-2.42-.73A6.93,6.93,0,0,0,22,10.85L21.1,9.31A11.35,11.35,0,0,1,23.63,8a8.44,8.44,0,0,1,2.77-.4A5.29,5.29,0,0,1,30.07,8.8a4.16,4.16,0,0,1,1.32,3.25l0,8.35Zm-1.33-2.51a3,3,0,0,0,1.3-2V14.62H25.46a4.39,4.39,0,0,0-2.24.45,1.58,1.58,0,0,0-.73,1.44,1.87,1.87,0,0,0,.74,1.56,3.14,3.14,0,0,0,2,.58A4.53,4.53,0,0,0,27.88,17.89Z" transform="translate(0 -2.64)"/><path class="cls-1" d="M42.7,19.56a5.53,5.53,0,0,1-3,.94,3.4,3.4,0,0,1-2.45-.9,3.64,3.64,0,0,1-.93-2.73v-7h-1.8V8.14h1.8V4.73h2.25V8.14h3.89v1.7H38.59v6.62A2.35,2.35,0,0,0,39,18a1.42,1.42,0,0,0,1.15.45,4,4,0,0,0,2-.6Z" transform="translate(0 -2.64)"/><path class="cls-1" d="M53.64,20.4V18.62A5.2,5.2,0,0,1,49.2,20.5,5,5,0,0,1,46.88,20a3.69,3.69,0,0,1-1.53-1.39,3.76,3.76,0,0,1-.54-2,3.25,3.25,0,0,1,1.26-2.7,5.55,5.55,0,0,1,3.51-1h4v-.6a2.64,2.64,0,0,0-.83-2.08,3.53,3.53,0,0,0-2.41-.73,7,7,0,0,0-3.92,1.37l-.93-1.54A11.35,11.35,0,0,1,48.06,8a8.48,8.48,0,0,1,2.77-.4A5.27,5.27,0,0,1,54.5,8.8a4.16,4.16,0,0,1,1.32,3.25l0,8.35Zm-1.33-2.51a3,3,0,0,0,1.31-2V14.62H49.9a4.41,4.41,0,0,0-2.25.45,1.58,1.58,0,0,0-.73,1.44,1.87,1.87,0,0,0,.74,1.56,3.15,3.15,0,0,0,2,.58A4.5,4.5,0,0,0,52.31,17.89Z" transform="translate(0 -2.64)"/><path class="cls-1" d="M74.68,6a8.25,8.25,0,0,0-2.32-.37A4.22,4.22,0,0,0,70,6.18a1.77,1.77,0,0,0-.88,1.55,2.05,2.05,0,0,0,.53,1.45,3.76,3.76,0,0,0,1.3.89c.51.21,1.22.47,2.13.75a25.06,25.06,0,0,1,2.76,1,4.71,4.71,0,0,1,1.8,1.43,3.93,3.93,0,0,1,.75,2.51,4.19,4.19,0,0,1-.78,2.52A5.05,5.05,0,0,1,75.44,20a8.3,8.3,0,0,1-3.22.58,9.33,9.33,0,0,1-3.6-.72,9.79,9.79,0,0,1-3-1.92l1-2a8.49,8.49,0,0,0,2.7,1.81,7.34,7.34,0,0,0,2.92.64,4.66,4.66,0,0,0,2.65-.66,2.19,2.19,0,0,0,.44-3.25A3.54,3.54,0,0,0,74,13.54a20.07,20.07,0,0,0-2.17-.75,21,21,0,0,1-2.73-1,4.58,4.58,0,0,1-1.79-1.42,3.88,3.88,0,0,1-.73-2.47,3.94,3.94,0,0,1,.74-2.38A4.71,4.71,0,0,1,69.41,4a8.09,8.09,0,0,1,3.12-.55,10.25,10.25,0,0,1,3,.44A9.87,9.87,0,0,1,78.07,5l-1,2.06A9.82,9.82,0,0,0,74.68,6Z" transform="translate(0 -2.64)"/><path class="cls-1" d="M87.62,9.62a4.41,4.41,0,0,0-2.22.56,3.81,3.81,0,0,0-1.52,1.56,4.71,4.71,0,0,0-.55,2.32,4.86,4.86,0,0,0,.54,2.33A3.89,3.89,0,0,0,85.36,18a4.11,4.11,0,0,0,2.17.57,5.8,5.8,0,0,0,2.21-.41,4.13,4.13,0,0,0,1.63-1.18l1.27,1.3a5.71,5.71,0,0,1-2.2,1.66,7.55,7.55,0,0,1-3,.57,6.6,6.6,0,0,1-3.29-.81,5.82,5.82,0,0,1-2.24-2.27,6.73,6.73,0,0,1-.8-3.33,6.75,6.75,0,0,1,.8-3.33,5.72,5.72,0,0,1,2.24-2.28,6.51,6.51,0,0,1,3.29-.82,8.18,8.18,0,0,1,2.89.49,5.6,5.6,0,0,1,2.15,1.43l-1.22,1.54A5,5,0,0,0,87.62,9.62Z" transform="translate(0 -2.64)"/><path class="cls-1" d="M98.41,3.05a1.39,1.39,0,0,1,.4,1,1.39,1.39,0,0,1-.4,1,1.41,1.41,0,0,1-2,0,1.43,1.43,0,0,1-.4-1,1.43,1.43,0,0,1,.4-1,1.41,1.41,0,0,1,2,0ZM96.31,7.7h2.23V20.4H96.31Z" transform="translate(0 -2.64)"/><path class="cls-1" d="M112.92,9.37a7.12,7.12,0,0,1,1.51,4.84c0,.32,0,.56,0,.72h-10a4.32,4.32,0,0,0,1.42,2.71,4.24,4.24,0,0,0,2.87,1,5.42,5.42,0,0,0,2.1-.41,5.07,5.07,0,0,0,1.69-1.15l1.23,1.27a6.54,6.54,0,0,1-2.26,1.56,7.5,7.5,0,0,1-2.93.55,6.79,6.79,0,0,1-3.32-.8,5.68,5.68,0,0,1-2.26-2.27,6.9,6.9,0,0,1-.8-3.34,6.82,6.82,0,0,1,.8-3.32,5.87,5.87,0,0,1,2.25-2.28,6.48,6.48,0,0,1,3.29-.83A5.6,5.6,0,0,1,112.92,9.37Zm-.5,3.83a3.7,3.7,0,0,0-3.94-3.72,4,4,0,0,0-2.8,1,4.26,4.26,0,0,0-1.33,2.71Z" transform="translate(0 -2.64)"/><path class="cls-1" d="M128.52,8.94a5,5,0,0,1,1.27,3.61V20.4h-2.23V13.15a3.4,3.4,0,0,0-.9-2.51,3.37,3.37,0,0,0-2.49-.9,3.82,3.82,0,0,0-2.77,1.1,4.3,4.3,0,0,0-1.21,2.77V20.4H118V7.7h2.23v2.69q1.28-2.72,4.82-2.76A4.68,4.68,0,0,1,128.52,8.94Z" transform="translate(0 -2.64)"/><path class="cls-1" d="M139.53,9.62a4.41,4.41,0,0,0-2.22.56,3.87,3.87,0,0,0-1.52,1.56,4.71,4.71,0,0,0-.55,2.32,4.86,4.86,0,0,0,.54,2.33A3.89,3.89,0,0,0,137.27,18a4.11,4.11,0,0,0,2.17.57,5.8,5.8,0,0,0,2.21-.41,4.13,4.13,0,0,0,1.63-1.18l1.27,1.3a5.71,5.71,0,0,1-2.2,1.66,7.55,7.55,0,0,1-3,.57,6.6,6.6,0,0,1-3.29-.81,5.82,5.82,0,0,1-2.24-2.27,6.73,6.73,0,0,1-.8-3.33,6.75,6.75,0,0,1,.8-3.33,5.72,5.72,0,0,1,2.24-2.28,6.51,6.51,0,0,1,3.29-.82,8.18,8.18,0,0,1,2.89.49,5.6,5.6,0,0,1,2.15,1.43l-1.22,1.54A5,5,0,0,0,139.53,9.62Z" transform="translate(0 -2.64)"/><path class="cls-1" d="M157.77,9.37a7.13,7.13,0,0,1,1.52,4.84,6.32,6.32,0,0,1,0,.72h-10a4.34,4.34,0,0,0,1.43,2.71,4.23,4.23,0,0,0,2.87,1,5.42,5.42,0,0,0,2.1-.41,5.17,5.17,0,0,0,1.69-1.15l1.22,1.27a6.4,6.4,0,0,1-2.25,1.56,7.5,7.5,0,0,1-2.93.55,6.83,6.83,0,0,1-3.33-.8,5.65,5.65,0,0,1-2.25-2.27,6.8,6.8,0,0,1-.81-3.34,6.72,6.72,0,0,1,.81-3.32A5.78,5.78,0,0,1,150,8.46a6.51,6.51,0,0,1,3.29-.83A5.57,5.57,0,0,1,157.77,9.37Zm-.5,3.83a3.68,3.68,0,0,0-3.94-3.72,4,4,0,0,0-2.79,1,4.16,4.16,0,0,0-1.33,2.71Z" transform="translate(0 -2.64)"/><path class="cls-1" d="M179.73,6.06a6.29,6.29,0,0,0-2.61-.56,6.37,6.37,0,0,0-3.27.86A6.51,6.51,0,0,0,171.5,8.7a6.47,6.47,0,0,0,2.35,8.84,6.38,6.38,0,0,0,3.27.87,6.57,6.57,0,0,0,2.59-.54A7.43,7.43,0,0,0,182,16.39l1.39,1.51a9.22,9.22,0,0,1-3,2,8.76,8.76,0,0,1-3.41.71,8.66,8.66,0,0,1-4.39-1.14,8.47,8.47,0,0,1-4.3-7.45,8.31,8.31,0,0,1,1.16-4.31,8.5,8.5,0,0,1,3.18-3.09,9.24,9.24,0,0,1,7.84-.46A8.34,8.34,0,0,1,183.33,6L182,7.63A7,7,0,0,0,179.73,6.06Z" transform="translate(0 -2.64)"/><path class="cls-1" d="M195.49,8.45a5.84,5.84,0,0,1,2.3,2.27,6.47,6.47,0,0,1,.83,3.32,6.6,6.6,0,0,1-.83,3.34,5.93,5.93,0,0,1-2.3,2.28,6.89,6.89,0,0,1-3.37.81,7,7,0,0,1-3.4-.81,5.9,5.9,0,0,1-2.3-2.27,6.68,6.68,0,0,1-.83-3.35,6.57,6.57,0,0,1,.83-3.32,5.84,5.84,0,0,1,2.3-2.27,6.87,6.87,0,0,1,3.4-.82A6.78,6.78,0,0,1,195.49,8.45Zm-5.59,1.7a4,4,0,0,0-1.51,1.6,4.86,4.86,0,0,0-.54,2.31,5,5,0,0,0,.54,2.36A3.86,3.86,0,0,0,189.9,18a4.32,4.32,0,0,0,2.22.57,4.23,4.23,0,0,0,2.19-.57,3.88,3.88,0,0,0,1.52-1.59,5,5,0,0,0,.54-2.36,4.86,4.86,0,0,0-.54-2.31,4,4,0,0,0-1.52-1.6,4.23,4.23,0,0,0-2.19-.57A4.32,4.32,0,0,0,189.9,10.15Z" transform="translate(0 -2.64)"/><path class="cls-1" d="M222.05,9a5,5,0,0,1,1.24,3.6V20.4H221V13.15a3.47,3.47,0,0,0-.88-2.52,3.17,3.17,0,0,0-2.41-.91A3.65,3.65,0,0,0,214.92,11a4.72,4.72,0,0,0-1,3.15V20.4h-2.26V13.15a3.55,3.55,0,0,0-.86-2.52,3.19,3.19,0,0,0-2.43-.91A3.67,3.67,0,0,0,205.5,11a4.68,4.68,0,0,0-1.05,3.15V20.4h-2.23V7.7h2.23v2.67a4.81,4.81,0,0,1,4.73-2.74,4.87,4.87,0,0,1,2.92.84,4.15,4.15,0,0,1,1.57,2.35c.78-2.09,2.43-3.16,4.94-3.19A4.52,4.52,0,0,1,222.05,9Z" transform="translate(0 -2.64)"/><path class="cls-1" d="M238,8.45a5.53,5.53,0,0,1,2.16,2.28,7.12,7.12,0,0,1,.77,3.36,7,7,0,0,1-.76,3.32A5.47,5.47,0,0,1,238,19.67a6.24,6.24,0,0,1-3.16.8A5.75,5.75,0,0,1,232,19.8a4.79,4.79,0,0,1-1.92-1.92v7.18h-2.23V7.7h2.23v2.52A4.83,4.83,0,0,1,232,8.3a5.73,5.73,0,0,1,2.79-.67A6.09,6.09,0,0,1,238,8.45Zm-1.4,9.5a3.91,3.91,0,0,0,1.51-1.61,5.19,5.19,0,0,0,0-4.63,4.07,4.07,0,0,0-1.52-1.61,4.47,4.47,0,0,0-4.37,0,4.09,4.09,0,0,0-1.53,1.61,4.81,4.81,0,0,0-.55,2.31,4.82,4.82,0,0,0,.55,2.34A4,4,0,0,0,232.19,18a4.12,4.12,0,0,0,2.19.58A4.18,4.18,0,0,0,236.58,18Z" transform="translate(0 -2.64)"/><path class="cls-1" d="M254.06,9.37a7.12,7.12,0,0,1,1.51,4.84c0,.32,0,.56,0,.72h-10A4.29,4.29,0,0,0,247,17.64a4.22,4.22,0,0,0,2.86,1,5.42,5.42,0,0,0,2.1-.41,5.07,5.07,0,0,0,1.69-1.15l1.23,1.27a6.44,6.44,0,0,1-2.26,1.56,7.45,7.45,0,0,1-2.92.55,6.83,6.83,0,0,1-3.33-.8,5.68,5.68,0,0,1-2.26-2.27,6.9,6.9,0,0,1-.8-3.34,6.82,6.82,0,0,1,.8-3.32,5.87,5.87,0,0,1,2.25-2.28,6.48,6.48,0,0,1,3.29-.83A5.6,5.6,0,0,1,254.06,9.37Zm-.5,3.83a3.68,3.68,0,0,0-3.94-3.72,4,4,0,0,0-2.79,1,4.22,4.22,0,0,0-1.34,2.71Z" transform="translate(0 -2.64)"/><path class="cls-1" d="M265.92,19.56a5.53,5.53,0,0,1-3,.94,3.4,3.4,0,0,1-2.45-.9,3.64,3.64,0,0,1-.93-2.73v-7h-1.8V8.14h1.8V4.73h2.25V8.14h3.89v1.7h-3.89v6.62A2.35,2.35,0,0,0,262.2,18a1.42,1.42,0,0,0,1.15.45,4,4,0,0,0,2-.6Z" transform="translate(0 -2.64)"/><path class="cls-1" d="M271.21,3.05a1.42,1.42,0,0,1,.39,1,1.42,1.42,0,0,1-.39,1,1.36,1.36,0,0,1-1,.41,1.32,1.32,0,0,1-1-.41,1.39,1.39,0,0,1-.4-1,1.39,1.39,0,0,1,.4-1,1.32,1.32,0,0,1,1-.41A1.36,1.36,0,0,1,271.21,3.05Zm-2.1,4.65h2.23V20.4h-2.23Z" transform="translate(0 -2.64)"/><path class="cls-1" d="M283,19.56a5.53,5.53,0,0,1-3,.94,3.37,3.37,0,0,1-2.44-.9,3.6,3.6,0,0,1-.94-2.73v-7h-1.8V8.14h1.8V4.73h2.26V8.14h3.88v1.7h-3.88v6.62a2.35,2.35,0,0,0,.38,1.52,1.43,1.43,0,0,0,1.15.45,4,4,0,0,0,2-.6Z" transform="translate(0 -2.64)"/><path class="cls-1" d="M288.27,3.05a1.39,1.39,0,0,1,.4,1,1.39,1.39,0,0,1-.4,1,1.32,1.32,0,0,1-1,.41,1.34,1.34,0,0,1-1-.41,1.43,1.43,0,0,1-.4-1,1.43,1.43,0,0,1,.4-1,1.34,1.34,0,0,1,1-.41A1.32,1.32,0,0,1,288.27,3.05Zm-2.1,4.65h2.23V20.4h-2.23Z" transform="translate(0 -2.64)"/><path class="cls-1" d="M301.88,8.45a5.84,5.84,0,0,1,2.3,2.27A6.47,6.47,0,0,1,305,14a6.6,6.6,0,0,1-.83,3.34,5.93,5.93,0,0,1-2.3,2.28,6.89,6.89,0,0,1-3.37.81,7,7,0,0,1-3.4-.81,5.9,5.9,0,0,1-2.3-2.27A6.68,6.68,0,0,1,292,14a6.57,6.57,0,0,1,.83-3.32,5.84,5.84,0,0,1,2.3-2.27,6.87,6.87,0,0,1,3.4-.82A6.78,6.78,0,0,1,301.88,8.45Zm-5.59,1.7a4,4,0,0,0-1.51,1.6,4.86,4.86,0,0,0-.54,2.31,5,5,0,0,0,.54,2.36A3.86,3.86,0,0,0,296.29,18a4.32,4.32,0,0,0,2.22.57A4.23,4.23,0,0,0,300.7,18a3.88,3.88,0,0,0,1.52-1.59,5,5,0,0,0,.54-2.36,4.86,4.86,0,0,0-.54-2.31,4,4,0,0,0-1.52-1.6,4.23,4.23,0,0,0-2.19-.57A4.32,4.32,0,0,0,296.29,10.15Z" transform="translate(0 -2.64)"/><path class="cls-1" d="M319.17,8.94a5,5,0,0,1,1.27,3.61V20.4h-2.23V13.15a3.4,3.4,0,0,0-.9-2.51,3.36,3.36,0,0,0-2.48-.9,3.81,3.81,0,0,0-2.77,1.1,4.26,4.26,0,0,0-1.22,2.77V20.4h-2.23V7.7h2.23v2.69q1.28-2.72,4.83-2.76A4.66,4.66,0,0,1,319.17,8.94Z" transform="translate(0 -2.64)"/><path class="cls-1" d="M347.32,8.13a12.45,12.45,0,0,0,2.1-.12v2.23a18.9,18.9,0,0,0-2.08-.07h-2v.72c0,5.43-1.22,8.44-6.14,10.65l-1.79-1.69c3.93-1.45,5.79-3.26,5.79-8.83v-.85h-5.56v3.16c0,.86.06,1.75.09,2h-2.32c0-.29.11-1.18.11-2V10.17h-2.07c-1,0-1.85.05-2.18.07V8a17.87,17.87,0,0,0,2.18.14h2.07V5.71c0-.73-.09-1.41-.11-1.68h2.36a11.36,11.36,0,0,0-.13,1.68V8.13h5.56V5.69a14.76,14.76,0,0,0-.11-1.83h2.38a14,14,0,0,0-.13,1.83V8.13Z" transform="translate(0 -2.64)"/><path class="cls-1" d="M363.48,18.7a15.17,15.17,0,0,0,.15,2.48H361c.06-.46.12-1.62.12-2.48V11.2a40.4,40.4,0,0,1-7.61,3.1l-1.2-2a33.11,33.11,0,0,0,9.49-3.83,23.14,23.14,0,0,0,5.49-4.72l1.79,1.62a35.25,35.25,0,0,1-5.62,4.53Z" transform="translate(0 -2.64)"/><path class="cls-1" d="M385.28,15.24a57.29,57.29,0,0,0-8-3.28v6.5a26.08,26.08,0,0,0,.17,2.7H374.9a21.26,21.26,0,0,0,.17-2.7V6.3A14.68,14.68,0,0,0,374.88,4h2.59c-.06.69-.15,1.62-.15,2.35V9.58A74.55,74.55,0,0,1,386.23,13Z" transform="translate(0 -2.64)"/></g></g></svg>