<?xml version="1.0" encoding="UTF-8" standalone="no"?><!DOCTYPE svg PUBLIC "-//W3C//DTD SVG 1.1//EN" "http://www.w3.org/Graphics/SVG/1.1/DTD/svg11.dtd"><svg width="100%" height="100%" viewBox="0 0 918 266" version="1.1" xmlns="http://www.w3.org/2000/svg" xmlns:xlink="http://www.w3.org/1999/xlink" xml:space="preserve" style="fill-rule:evenodd;clip-rule:evenodd;stroke-linecap:round;stroke-linejoin:round;stroke-miterlimit:1.5;"><g><path d="M743.997,59.131c0,-26.894 -24.637,-52.32 -64.008,-52.32c-39.371,0 -64.251,30.594 -64.251,64.788c0,34.193 -0.009,10.384 -0.009,44.589c0,35.968 29.095,66.812 64.978,66.812c29.332,0 63.253,-13.458 63.253,-58.208" style="fill:none;stroke:#000;stroke-width:4px;"/><g><circle cx="167.837" cy="11.222" r="10.304" style="stroke:#000;stroke-width:1px;"/><circle cx="167.837" cy="181.18" r="10.304" style="stroke:#000;stroke-width:1px;"/></g><g><circle cx="323.914" cy="11.222" r="10.304" style="stroke:#000;stroke-width:1px;"/><circle cx="323.914" cy="103.126" r="10.304" style="stroke:#000;stroke-width:1px;"/><circle cx="323.914" cy="181.18" r="10.304" style="stroke:#000;stroke-width:1px;"/></g><g><circle cx="467.667" cy="11.222" r="10.304" style="stroke:#000;stroke-width:1px;"/><circle cx="467.667" cy="103.126" r="10.304" style="stroke:#000;stroke-width:1px;"/><circle cx="467.667" cy="181.18" r="10.304" style="stroke:#000;stroke-width:1px;"/></g><circle cx="743.711" cy="59.069" r="10.304" style="stroke:#000;stroke-width:1px;"/><circle cx="743.711" cy="103.126" r="10.304" style="stroke:#000;stroke-width:1px;"/><circle cx="687.621" cy="103.126" r="10.304" style="stroke:#000;stroke-width:1px;"/><circle cx="743.711" cy="181.18" r="10.304" style="stroke:#000;stroke-width:1px;"/><circle cx="551.156" cy="103.126" r="10.304" style="stroke:#000;stroke-width:1px;"/><circle cx="587.074" cy="181.18" r="10.304" style="stroke:#000;stroke-width:1px;"/><circle cx="245.543" cy="155.442" r="10.304" style="stroke:#000;stroke-width:1px;"/><path d="M167.837,18.553l0,155.298" style="fill:none;stroke:#000;stroke-width:4px;"/><path d="M467.667,18.553l0,155.298" style="fill:none;stroke:#000;stroke-width:4px;"/><path d="M743.86,107.56l0,66.291" style="fill:none;stroke:#000;stroke-width:4px;"/><path d="M693.276,103.108l45.802,0" style="fill:none;stroke:#000;stroke-width:4px;"/><path d="M171.392,18.054l71.263,131.325" style="fill:none;stroke:#000;stroke-width:4px;"/><path d="M554.517,110.276l29.472,66.468" style="fill:none;stroke:#000;stroke-width:4px;"/><path d="M320.295,17.646l-71.263,131.325" style="fill:none;stroke:#000;stroke-width:4px;"/><path d="M323.914,18.553l0,155.298" style="fill:none;stroke:#000;stroke-width:4px;"/><path d="M329.695,10.995c0,0 15.838,0 55.235,0c39.397,0 50.485,16.948 50.485,48.187c0,31.238 -22.986,43.816 -48.09,43.816c-38.889,0 -56.018,0.012 -56.018,0.012" style="fill:none;stroke:#000;stroke-width:4px;"/><path d="M471.385,10.995c0,0 26.445,0 65.842,0c39.396,0 50.485,16.948 50.485,48.187c0,31.238 -22.986,43.816 -48.09,43.816c-38.89,0 -66.264,0.012 -66.264,0.012" style="fill:none;stroke:#000;stroke-width:4px;"/><text x="-2.824px" y="264.85px" style="font-family:'Helvetica';font-size:44px;">M<tspan x="31.518px 58.556px 88.021px 117.487px 127.401px 156.867px " y="264.85px 264.85px 264.85px 264.85px 264.85px 264.85px ">ACHINE</tspan></text><text x="197.63px" y="264.85px" style="font-family:'Helvetica';font-size:44px;">P<tspan x="223.702px 249.774px 278.274px 306.773px 332.845px 358.918px 382.519px 391.468px 422.417px " y="264.85px 264.85px 264.85px 264.85px 264.85px 264.85px 264.85px 264.85px 264.85px ">ERCEPTION</tspan></text><text x="463.207px" y="264.85px" style="font-family:'Helvetica';font-size:44px;">A<tspan x="490.706px 520.634px " y="264.85px 264.85px ">ND</tspan></text><text x="562.216px" y="264.85px" style="font-family:'Helvetica';font-size:44px;">R<tspan x="590.522px 621.277px 647.155px 677.91px 701.317px 710.072px 738.378px " y="264.85px 264.85px 264.85px 264.85px 264.85px 264.85px 264.85px ">OBOTICS</tspan></text><text x="776.534px" y="264.85px" style="font-family:'Helvetica';font-size:44px;">G<tspan x="806.193px 833.404px 863.063px 890.274px " y="264.85px 264.85px 264.85px 264.85px ">ROUP</tspan></text></g></svg>